<svg xmlns="http://www.w3.org/2000/svg">
  <symbol id="cards-pile" viewBox="0 0 512 512" fill="currentColor">
    <g>
      <path
        d="M 150.156 82.406 C 148.331 82.49 146.53 82.849 144.812 83.469 L 41.094 121.53 C 36.611 123.175 32.601 126.887 30.594 131.22 C 28.587 135.55 28.356 141.018 30 145.5 L 96.72 327.375 C 98.363 331.857 102.074 335.899 106.406 337.905 C 110.738 339.913 116.206 340.145 120.686 338.5 L 224.406 300.437 C 228.889 298.793 232.899 295.082 234.906 290.75 L 234.936 290.687 C 236.918 286.365 237.136 280.93 235.5 276.469 L 168.78 94.593 C 167.145 90.133 163.462 86.109 159.156 84.093 L 159.094 84.063 C 156.928 83.058 154.471 82.507 152 82.405 C 151.382 82.38 150.77 82.375 150.156 82.405 L 150.156 82.406 Z M 189.22 96.03 L 253.063 270.03 C 256.469 279.343 256.042 289.627 251.875 298.625 C 247.71 307.615 240.146 314.584 230.845 318 L 203.405 328.063 L 263.405 330.843 C 268.175 331.066 273.315 329.183 276.845 325.969 C 280.373 322.752 282.715 317.799 282.937 313.029 L 291.937 119.529 C 292.159 114.761 290.309 109.591 287.094 106.061 C 283.878 102.531 278.926 100.191 274.156 99.968 L 189.219 96.028 L 189.22 96.03 Z M 310.22 129.28 L 301.594 313.906 C 301.133 323.81 296.761 333.127 289.438 339.812 C 282.107 346.48 272.429 349.964 262.531 349.5 L 236.471 348.28 L 305.845 371.375 C 310.375 372.882 315.857 372.482 320.125 370.345 C 324.395 368.205 327.963 364.062 329.47 359.531 L 390.625 175.721 C 392.132 171.189 391.732 165.708 389.595 161.439 C 387.455 157.169 383.312 153.569 378.781 152.064 L 310.221 129.282 L 310.22 129.28 Z M 406.594 186.845 L 347.22 365.437 C 344.091 374.841 337.358 382.618 328.5 387.062 L 328.406 387.092 C 319.563 391.489 309.34 392.208 299.969 389.092 L 279.593 382.312 L 322.905 419.342 C 326.535 422.444 331.77 424.122 336.53 423.749 C 341.29 423.375 346.148 420.909 349.25 417.279 L 475.125 269.969 C 478.227 266.339 479.905 261.134 479.531 256.374 C 479.159 251.614 476.661 246.726 473.031 243.624 L 406.595 186.844 L 406.594 186.845 Z"
        fill="currentColor" fill-opacity="1" />
    </g>
  </symbol>
</svg>
