<svg
  xmlns="http://www.w3.org/2000/svg"
>
  <symbol id="chaosbag"
          width="24"
          height="24"
          stroke="none"
          stroke-width="1.5"
          fill="currentColor"
          preserveAspectRatio="xMidYMid meet"
          viewBox="0 0 580 489">
    <g transform="translate(0.000000,489.000000) scale(0.100000,-0.100000)">
      <path
        d="M2403 4772 l-93 -118 -102 -12 c-489 -59 -960 -281 -1309 -619 l-96
-93 -151 0 c-131 0 -152 -2 -152 -16 0 -8 14 -75 31 -149 l30 -133 -62 -104
c-171 -281 -285 -626 -320 -967 -11 -110 -7 -472 6 -531 5 -21 -11 -46 -90
-144 l-96 -120 138 -66 138 -66 19 -60 c48 -154 170 -397 278 -557 74 -108
195 -251 299 -352 123 -119 208 -188 345 -279 l102 -68 21 -91 c11 -51 26
-116 33 -144 6 -29 15 -53 19 -53 4 0 62 27 130 60 68 33 131 60 140 60 8 0
55 -14 105 -31 236 -80 449 -113 729 -113 286 0 450 25 725 110 l115 36 138
-66 c91 -43 139 -61 142 -53 2 7 18 75 36 152 l32 140 86 55 c405 259 732 667
911 1136 l42 111 140 66 139 66 -96 120 -97 121 12 162 c35 471 -79 955 -319
1358 l-62 104 33 151 34 150 -154 3 -155 3 -81 76 c-385 362 -873 592 -1354
639 l-74 7 -95 118 c-52 66 -96 119 -97 119 0 -1 -43 -54 -93 -118z m432 -519
c131 -164 242 -304 248 -310 7 -10 -59 -13 -324 -13 l-334 0 -40 97 c-22 53
-66 144 -98 201 -31 57 -54 109 -50 115 4 7 42 56 85 110 l79 97 98 0 99 0
237 -297z m-656 237 l-33 -41 -23 28 c-34 43 -36 41 70 51 14 2 12 -6 -14 -38z
m809 3 c356 -78 723 -268 992 -512 l55 -50 -385 0 -385 -1 -225 282 c-287 359
-262 322 -209 313 24 -3 95 -18 157 -32z m-940 -58 l43 -54 -181 -225 -180
-226 -385 0 -385 0 65 59 c171 156 383 289 609 385 114 49 317 115 351 115 12
0 37 -21 63 -54z m200 -317 c39 -79 73 -153 77 -165 l6 -23 -212 0 c-209 0
-211 0 -198 20 34 48 245 309 251 310 3 0 38 -64 76 -142z m-851 -607 c-122
-154 -224 -280 -227 -280 -3 0 -23 36 -45 81 -55 113 -180 299 -255 381 -39
42 -60 73 -56 82 5 13 61 15 405 15 l399 0 -221 -279z m996 257 c3 -13 17 -68
31 -123 26 -95 58 -280 70 -393 l5 -52 -37 -16 c-77 -32 -123 -96 -132 -183
l-5 -55 -453 -304 c-249 -167 -455 -302 -457 -301 -2 2 -13 62 -25 132 -27
162 -79 371 -124 506 -20 57 -32 109 -29 115 4 6 130 165 281 354 l274 342
298 0 298 0 5 -22z m1038 -260 c123 -155 225 -285 227 -289 4 -11 -135 -80
-228 -113 -156 -57 -265 -77 -431 -83 -87 -3 -177 -3 -200 1 -41 6 -45 10 -63
51 -20 49 -73 99 -122 115 l-31 10 -12 113 c-13 124 -51 318 -80 415 l-19 62
367 0 368 0 224 -282z m773 241 l35 -42 -21 -30 c-64 -90 -253 -267 -383 -360
l-50 -36 -165 207 c-91 113 -182 227 -203 254 l-39 48 395 0 395 0 36 -41z
m-3424 -156 c75 -84 163 -220 232 -357 70 -139 74 -112 -45 -261 -44 -55 -82
-102 -84 -104 -2 -2 -5 -2 -7 0 -10 10 -176 761 -171 769 11 18 23 10 75 -47z
m-96 -497 l84 -369 -238 -297 c-197 -247 -239 -294 -244 -277 -9 35 -7 304 4
402 33 303 118 578 257 833 24 46 47 82 49 80 2 -2 41 -170 88 -372z m3805
209 c131 -270 199 -524 220 -820 5 -71 7 -132 6 -134 -2 -2 -49 2 -105 9
l-101 13 -140 175 c-87 110 -138 181 -135 191 3 9 39 165 80 346 42 182 78
341 82 355 6 25 6 25 20 5 8 -11 41 -74 73 -140z m-416 13 c-87 -120 -148
-198 -154 -198 -4 0 -17 13 -28 29 l-21 29 83 60 c46 33 89 68 96 76 16 19 38
22 24 4z m102 -240 c-25 -111 -47 -207 -49 -212 -2 -10 -116 126 -116 139 0 4
26 40 58 81 33 40 79 102 103 137 24 36 45 64 47 62 2 -2 -17 -95 -43 -207z
m-385 -20 l34 -42 -69 -64 c-84 -78 -236 -180 -336 -226 -151 -69 -343 -114
-499 -117 -36 -1 -89 -4 -118 -7 l-52 -7 305 -183 c279 -168 305 -185 299
-205 -4 -12 -8 -50 -8 -84 l-1 -62 -90 -72 c-160 -127 -292 -270 -402 -435
-31 -46 -61 -84 -67 -83 -6 0 -110 46 -231 103 l-220 102 -6 60 c-5 58 -18 94
-45 124 -11 13 -1 38 60 162 104 208 181 449 216 670 12 76 13 77 49 89 47 15
98 53 115 88 l15 28 73 -10 c146 -18 379 6 560 58 94 27 300 111 338 138 35
24 43 22 80 -25z m-1290 -75 l-1 -68 -19 24 c-11 13 -20 33 -20 45 0 20 25 66
36 66 2 0 4 -30 4 -67z m120 2 c0 -29 -24 -76 -32 -65 -2 3 -2 34 0 70 4 58 5
63 18 45 8 -10 14 -33 14 -50z m-1445 -165 c47 -165 80 -329 105 -530 11 -91
22 -171 23 -178 1 -7 234 143 546 352 475 319 547 364 560 352 9 -7 30 -21 47
-29 35 -18 35 -6 2 -176 -37 -192 -114 -412 -206 -586 l-47 -89 -81 -1 c-71 0
-85 -3 -122 -28 -23 -15 -54 -46 -69 -69 -38 -56 -40 -151 -5 -217 l23 -44
-88 -89 c-86 -87 -247 -224 -322 -274 l-38 -25 -139 68 -139 68 -152 665 c-83
366 -152 675 -152 688 -1 25 199 284 211 273 3 -3 23 -62 43 -131z m2812 -8
c108 -135 102 -106 59 -299 -21 -92 -39 -169 -41 -170 -1 -2 -35 -12 -76 -22
-41 -10 -100 -28 -133 -40 l-59 -20 -18 23 c-43 55 -162 83 -235 56 -24 -10
-41 -3 -166 72 -76 45 -138 86 -138 90 0 5 8 8 17 8 34 0 190 53 283 96 115
54 267 155 352 234 35 33 68 59 74 60 6 0 42 -40 81 -88z m-3177 -266 c0 -2
58 -259 130 -572 71 -312 128 -569 127 -571 -4 -3 -698 333 -707 344 -5 4 -17
50 -28 100 l-20 93 242 304 c211 266 256 320 256 302z m3476 -108 c26 -33 40
-58 32 -59 -7 0 -48 -4 -90 -7 -43 -4 -78 -7 -78 -6 0 2 10 44 21 95 l22 93
24 -30 c13 -16 44 -55 69 -86z m244 -305 c69 -86 131 -166 139 -178 12 -18 11
-34 -8 -118 -12 -52 -28 -100 -34 -105 -20 -16 -689 -333 -693 -329 -3 3 140
645 191 854 6 25 27 28 185 31 l95 2 125 -157z m150 131 c30 -6 30 -6 30 -70
0 -35 -1 -64 -3 -64 -4 0 -100 119 -111 139 -7 10 -2 12 23 7 17 -3 45 -9 61
-12z m-800 -476 c-57 -249 -108 -458 -114 -465 -16 -18 -1111 -541 -1114 -533
-5 13 38 208 64 293 15 45 39 109 54 143 l27 61 119 12 c207 21 202 16 75 74
-61 28 -111 56 -111 62 0 20 115 178 197 271 80 90 203 202 281 256 l43 29 30
-25 c111 -94 293 -33 335 112 9 29 13 64 10 77 -4 14 -1 27 6 32 18 10 192 62
197 57 2 -2 -43 -207 -99 -456z m-293 424 c7 -4 -11 -19 -48 -38 -57 -30 -74
-27 -46 8 25 32 69 46 94 30z m31 -129 c-20 -19 -33 -24 -64 -21 l-39 3 60 32
c64 33 83 27 43 -14z m-1498 -279 c0 -16 -73 -103 -82 -98 -11 7 -2 52 15 73
17 20 67 39 67 25z m80 -78 c0 -29 -32 -72 -60 -79 -26 -7 -26 -6 13 53 36 55
47 62 47 26z m-1430 -331 c179 -87 329 -161 333 -165 13 -12 59 -222 50 -230
-11 -10 -184 -75 -266 -100 l-68 -21 -20 23 c-53 62 -172 233 -223 320 -52 89
-132 258 -151 317 -9 29 -49 46 345 -144z m1672 83 c158 -73 198 -98 153 -98
-28 0 -227 -71 -308 -110 -104 -49 -242 -136 -329 -206 -37 -30 -71 -54 -77
-54 -14 0 -276 130 -278 138 -1 4 32 32 74 62 42 30 137 114 211 186 131 127
137 131 166 123 53 -15 110 -10 156 15 25 13 47 24 50 25 3 0 85 -36 182 -81z
m2128 66 c0 -17 -86 -205 -131 -287 -107 -192 -221 -341 -383 -502 -106 -105
-328 -284 -333 -268 -3 10 162 732 169 738 6 6 661 323 671 324 4 1 7 -2 7 -5z
m-1921 -396 c-35 -104 -68 -243 -84 -361 -5 -41 -11 -50 -38 -63 -32 -15 -33
-15 -270 100 l-239 116 29 23 c115 97 309 200 483 258 172 57 166 61 119 -73z
m-1295 -38 c5 -5 -7 -16 -27 -26 -20 -10 -39 -16 -41 -13 -2 2 -7 21 -11 41
l-7 38 38 -16 c22 -9 43 -20 48 -24z m2291 -346 c-53 -231 -92 -383 -101 -390
-8 -7 -52 -28 -97 -48 l-83 -37 -344 166 c-190 92 -348 170 -353 174 -7 7
1054 523 1061 516 2 -2 -36 -173 -83 -381z m-2029 221 c87 -42 160 -77 162
-80 2 -2 -21 -33 -51 -68 -80 -94 -153 -206 -224 -342 -34 -66 -63 -117 -63
-113 0 3 -29 135 -65 293 -36 158 -65 291 -63 296 2 7 100 67 145 88 0 1 72
-33 159 -74z m-381 -299 c25 -110 43 -201 42 -203 -2 -2 -30 16 -63 38 -143
101 -339 284 -313 293 8 3 61 22 119 42 58 20 116 42 130 49 32 17 29 25 85
-219z m896 50 l213 -104 -34 -15 c-19 -8 -181 -85 -359 -171 -301 -145 -327
-156 -353 -145 -15 6 -28 15 -28 20 0 15 87 184 127 246 58 92 203 273 218
273 1 0 98 -47 216 -104z m423 -265 c7 -76 35 -292 43 -335 l6 -29 -156 6
c-86 4 -207 14 -269 23 -110 16 -325 66 -355 83 -16 8 -9 12 467 240 181 87
207 97 232 87 24 -9 27 -16 32 -75z m574 -218 c30 -14 50 -29 45 -33 -20 -19
-398 -100 -470 -100 -7 0 -17 17 -22 38 -12 43 -41 259 -41 302 l0 29 218
-106 c119 -58 241 -117 270 -130z"
      />
    </g>
  </symbol>
</svg>
