<?xml version="1.0" encoding="UTF-8" standalone="no"?>
<!-- Created with Inkscape (http://www.inkscape.org/) -->

<svg
   version="1.1"
   id="svg1"
   xmlns="http://www.w3.org/2000/svg"
   xmlns:svg="http://www.w3.org/2000/svg">
   <symbol id="modal-border" viewBox="0 0 91.201248 11.932296">
  <g
     id="layer1"
     transform="translate(-20.637498,-59.002084)"
     style="opacity:1;fill-opacity:1;fill:currentColor">
    <g
       id="g4">
      <g
         id="g223"
         transform="matrix(0.26458333,0,0,0.26458333,-89.411134,44.002073)"
         style="display:inline;fill-opacity:1;stroke:none;stroke-width:1.00157;stroke-dasharray:none;stroke-opacity:1">
        <path
           d="m 0,0 c 0,0 -3.507,-1.483 -6.695,1.558 -3.189,3.041 -5.952,7.755 -4.863,16.243 1.021,7.962 0.355,11.186 -5.34,11.719 -6.154,0.575 -12.284,-7.091 -15.065,-3.264 -0.806,1.109 2.869,4.97 -2.153,4.821 0,0 -1.778,0.134 -3.427,-1.78 -1.662,-1.93 -2.499,-0.536 -1.913,0.742 0.505,1.102 -0.797,1.557 -2.471,1.557 v 0.965 c 0,0 1.812,0 2.831,-0.579 0.399,-0.226 0.536,-0.659 0.331,-1.373 -0.09,-0.315 -0.554,-1.273 -0.218,-1.132 0.237,0.1 0.455,0.335 1.057,1.203 0.209,0.3 0.839,1.123 1.327,1.399 0.742,0.419 1.087,0.482 2.563,0.482 2.79,0 4.783,-2.003 3.986,-3.561 -0.798,-1.557 -1.053,-2.27 -0.336,-2.492 0.717,-0.222 2.488,0.119 8.466,3.16 5.978,3.041 9.565,1.929 11.797,-0.816 C -7.891,26.107 -9.9,18.84 -10.203,14.018 -10.57,8.171 -6.953,-0.362 0,0.816 Z"
           style="display:inline;fill-opacity:1;fill-rule:nonzero;stroke:none;stroke-width:0.751181;stroke-dasharray:none;stroke-opacity:1"
           transform="matrix(1.3333333,0,0,-1.3333333,758.5,101.30933)"
           id="path136" />
        <path
           d="m 0,0 c 0.274,0.105 0.55,0.207 0.83,0.298 2.175,0.707 4.604,-0.211 5.741,-1.996 1.458,-2.29 1.106,-5.355 0.286,-7.795 -0.639,-1.899 -1.798,-3.741 -2.632,-5.588 -0.676,-1.495 -1.453,-3.015 -1.625,-4.638 -0.282,-2.651 0.353,-6.18 2.594,-8.049 0.866,-0.722 2.537,-1.405 3.739,-1.228 l 0.675,0.411 c -5.645,0.117 -6.625,6.979 -5.321,10.864 0.446,1.331 1.138,2.553 1.903,4.021 0.958,1.839 2.123,3.487 2.731,5.492 C 9.788,-5.352 9.927,-1.387 8.415,1.32 7.602,2.775 5.642,3.953 4.051,4.049 2.25,4.159 0.349,3.449 -1.168,2.609 -1.562,2.391 -1.944,2.158 -2.324,1.924 -1.465,1.463 -0.69,0.82 0,0"
           style="display:inline;fill-opacity:1;fill-rule:nonzero;stroke:none;stroke-width:0.751181;stroke-dasharray:none;stroke-opacity:1"
           transform="matrix(1.3333333,0,0,-1.3333333,745.69067,62.106667)"
           id="path137" />
        <path
           d="m 0,0 c 3.206,-0.007 5.776,1.285 8.424,2.378 1.008,0.417 1.986,0.907 2.962,1.4 C 10.793,4.279 9.973,4.617 8.883,4.816 6.876,3.46 4.818,2.187 2.363,1.423 0.853,0.953 -2.451,0.355 -1.578,2.896 -1.764,2.904 -2.108,2.826 -2.279,2.757 -2.541,1.012 -2.221,0.005 0,0"
           style="display:inline;fill-opacity:1;fill-rule:nonzero;stroke:none;stroke-width:0.751181;stroke-dasharray:none;stroke-opacity:1"
           transform="matrix(1.3333333,0,0,-1.3333333,725.39733,69.517333)"
           id="path138" />
        <path
           d="m 0,0 c 0,0 1.952,0.56 1.54,2.21 0,0 -0.429,-1.356 -2.241,-1.341"
           style="display:inline;fill-opacity:1;fill-rule:nonzero;stroke:none;stroke-width:0.751181;stroke-dasharray:none;stroke-opacity:1"
           transform="matrix(1.3333333,0,0,-1.3333333,758.5,101.30933)"
           id="path139" />
        <path
           d="m 0,0 c 0,0 3.507,-1.483 6.695,1.558 3.189,3.041 5.952,7.755 4.863,16.243 -1.022,7.962 -0.355,11.186 5.34,11.719 6.154,0.575 12.283,-7.091 15.065,-3.264 0.806,1.109 -2.869,4.97 2.153,4.821 0,0 1.778,0.134 3.427,-1.78 1.662,-1.93 2.499,-0.536 1.913,0.742 -0.505,1.102 0.797,1.557 2.471,1.557 v 0.965 c 0,0 -1.812,0 -2.831,-0.579 -0.399,-0.226 -0.536,-0.659 -0.332,-1.373 0.091,-0.315 0.555,-1.273 0.219,-1.132 -0.237,0.1 -0.455,0.335 -1.058,1.203 -0.208,0.3 -0.838,1.123 -1.326,1.399 -0.742,0.419 -1.087,0.482 -2.563,0.482 -2.79,0 -4.783,-2.003 -3.986,-3.561 0.798,-1.557 1.053,-2.27 0.336,-2.492 -0.718,-0.222 -2.488,0.119 -8.466,3.16 -5.978,3.041 -9.565,1.929 -11.797,-0.816 C 7.891,26.107 9.9,18.84 10.203,14.018 10.57,8.171 6.953,-0.362 0,0.816 Z"
           style="display:inline;fill-opacity:1;fill-rule:nonzero;stroke:none;stroke-width:0.751181;stroke-dasharray:none;stroke-opacity:1"
           transform="matrix(1.3333333,0,0,-1.3333333,418.06133,101.30933)"
           id="path140" />
        <path
           d="M 527.048,748.579 H 354.861 v -0.964 h 172.187 z"
           style="display:inline;fill-opacity:1;fill-rule:nonzero;stroke:none;stroke-width:0.751181;stroke-dasharray:none;stroke-opacity:1"
           transform="matrix(1.3333333,0,0,-1.3333333,0,1056)"
           id="path141" />
        <path
           d="m 0,0 c -0.274,0.105 -0.55,0.207 -0.83,0.298 -2.175,0.707 -4.604,-0.211 -5.741,-1.996 -1.458,-2.29 -1.106,-5.355 -0.286,-7.795 0.639,-1.899 1.798,-3.741 2.632,-5.588 0.676,-1.495 1.453,-3.015 1.625,-4.638 0.282,-2.651 -0.353,-6.18 -2.593,-8.049 -0.867,-0.722 -2.538,-1.405 -3.74,-1.228 l -0.675,0.411 c 5.645,0.117 6.625,6.979 5.321,10.864 -0.446,1.331 -1.138,2.553 -1.903,4.021 -0.958,1.839 -2.123,3.487 -2.731,5.492 -0.867,2.856 -1.006,6.821 0.506,9.528 0.813,1.455 2.773,2.633 4.364,2.729 1.801,0.11 3.702,-0.6 5.219,-1.44 C 1.562,2.391 1.944,2.158 2.324,1.924 1.465,1.463 0.69,0.82 0,0"
           style="display:inline;fill-opacity:1;fill-rule:nonzero;stroke:none;stroke-width:0.751181;stroke-dasharray:none;stroke-opacity:1"
           transform="matrix(1.3333333,0,0,-1.3333333,430.87067,62.106667)"
           id="path142" />
        <path
           d="m 0,0 c -3.206,-0.007 -5.776,1.285 -8.424,2.378 -1.008,0.417 -1.986,0.907 -2.962,1.4 0.593,0.501 1.413,0.839 2.503,1.038 2.007,-1.356 4.065,-2.629 6.52,-3.393 1.51,-0.47 4.814,-1.068 3.941,1.473 C 1.764,2.904 2.108,2.826 2.279,2.757 2.541,1.012 2.221,0.005 0,0"
           style="display:inline;fill-opacity:1;fill-rule:nonzero;stroke:none;stroke-width:0.751181;stroke-dasharray:none;stroke-opacity:1"
           transform="matrix(1.3333333,0,0,-1.3333333,451.164,69.517333)"
           id="path143" />
        <path
           d="m 0,0 c 0,0 -1.952,0.56 -1.54,2.21 0,0 0.429,-1.356 2.241,-1.341"
           style="display:inline;fill-opacity:1;fill-rule:nonzero;stroke:none;stroke-width:0.751181;stroke-dasharray:none;stroke-opacity:1"
           transform="matrix(1.3333333,0,0,-1.3333333,418.06133,101.30933)"
           id="path144" />
      </g>
    </g>
  </g>
  </symbol>
</svg>
