<svg version="1.0" xmlns="http://www.w3.org/2000/svg">
  <symbol
    id="resource"
    viewBox="0 0 512.000000 512.000000"
    fill="currentColor" stroke="none">
    <g transform="translate(0.000000,512.000000) scale(0.100000,-0.100000)">
      <path d="M2410 4504 c-58 -31 -106 -57 -108 -59 -1 -1 374 -213 835 -471 461
-257 846 -472 856 -478 14 -9 47 4 172 69 85 44 155 82 155 85 0 3 -384 208
-853 455 -754 398 -858 450 -902 453 -44 2 -62 -4 -155 -54z" />
      <path d="M1962 4268 c-85 -44 -150 -84 -145 -88 14 -14 1692 -950 1703 -950
19 0 301 152 298 161 -2 7 -1558 882 -1678 944 -23 12 -37 7 -178 -67z" />
      <path d="M1452 3997 c-95 -50 -169 -94 -165 -98 13 -12 1676 -941 1695 -946
16 -5 348 164 348 177 0 4 -1030 583 -1640 922 l-66 36 -172 -91z" />
      <path d="M946 3730 c-145 -76 -148 -78 -125 -93 13 -8 410 -218 881 -467 l858
-452 120 63 c66 35 120 65 120 68 0 5 -1093 619 -1640 923 l-66 36 -148 -78z" />
      <path d="M700 2518 c0 -939 1 -984 19 -1013 14 -23 69 -58 229 -143 116 -62
215 -112 221 -112 17 0 15 1994 -1 2008 -17 13 -452 242 -461 242 -4 0 -7
-442 -7 -982z" />
      <path d="M4175 3377 l-230 -122 -3 -1004 c-2 -993 -2 -1003 18 -998 10 3 109
53 220 112 156 84 204 115 220 140 20 32 20 50 20 1014 0 539 -3 981 -7 981
-5 0 -111 -55 -238 -123z" />
      <path d="M1352 2155 l3 -1007 225 -120 c124 -66 231 -122 238 -125 10 -4 12
197 10 1002 l-3 1007 -225 120 c-124 66 -231 122 -238 125 -10 4 -12 -197 -10
-1002z" />
      <path d="M3525 3035 l-230 -123 -3 -1006 c-1 -553 1 -1006 5 -1005 5 0 112 55
238 122 l230 122 3 1008 c1 554 -1 1007 -5 1006 -5 0 -111 -56 -238 -124z" />
      <path d="M2000 1813 l0 -1008 68 -35 c37 -20 142 -75 235 -123 l167 -88 -2
1008 -3 1008 -95 50 c-52 28 -157 83 -232 123 l-138 73 0 -1008z" />
      <path d="M2885 2697 l-230 -123 -3 -1008 c-1 -554 2 -1006 6 -1004 5 1 110 57
235 123 l227 120 0 1007 c0 555 -1 1008 -2 1008 -2 0 -106 -56 -233 -123z" />
    </g>
  </symbol>
</svg>
